<svg width="160" height="165" viewBox="0 0 160 165" fill="none" xmlns="http://www.w3.org/2000/svg">
<rect y="4.31543" width="160" height="160" rx="20" fill="#545430"/>
<path d="M116.691 65.2152C116.706 65.3541 116.807 65.7315 116.995 66.3475C117.215 66.9519 117.513 67.6721 117.89 68.5078C118.874 70.8156 120.254 72.529 122.03 73.6478C123.795 74.7348 125.695 74.9078 127.731 74.1667C129.163 73.6457 130.303 72.8702 131.153 71.8403C132.035 70.7988 132.715 69.5968 133.191 68.2343L135.048 68.5852C134.688 70.662 133.93 72.5408 132.777 74.2216C131.612 75.8706 130.027 77.0599 128.023 77.7893C126.591 78.3104 125.151 78.5104 123.702 78.3893C122.273 78.2249 120.928 77.7957 119.667 77.102C118.362 76.3879 117.206 75.4396 116.199 74.2569C115.213 73.0308 114.424 71.6066 113.833 69.9841C113.092 67.9481 112.687 66.0422 112.617 64.2663C112.535 62.4586 112.753 60.8301 113.271 59.3809C113.756 57.9433 114.515 56.7124 115.547 55.6882C116.6 54.6206 117.858 53.8205 119.321 53.2878C120.307 52.9289 121.373 52.7391 122.518 52.7185C123.652 52.6661 124.738 52.8292 125.777 53.2078C126.815 53.5864 127.78 54.208 128.671 55.0726C129.551 55.9053 130.261 57.0157 130.802 58.4039C130.93 58.7539 131.012 59.0301 131.05 59.2325C131.119 59.4234 131.124 59.5839 131.063 59.7141C131.034 59.8327 130.93 59.9426 130.751 60.0439C130.572 60.1452 130.323 60.2537 130.005 60.3695L116.691 65.2152ZM125.328 59.6941C125.709 59.5551 125.946 59.4148 126.039 59.273C126.152 59.0879 126.133 58.7885 125.982 58.375C125.612 57.357 124.849 56.4996 123.695 55.8029C122.529 55.0744 121.262 54.959 119.894 55.4569C118.272 56.0475 117.169 57.0254 116.585 58.3908C116.001 59.7561 115.877 61.2963 116.213 63.0114L125.328 59.6941Z" fill="#FFF5E3"/>
<path d="M126.575 133.83C127.223 135.612 127.88 136.724 128.545 137.166C129.199 137.576 129.876 137.654 130.576 137.4C131.021 137.237 131.657 136.808 132.484 136.11C133.311 135.413 133.913 134.69 134.288 133.941L135.747 134.977C135.151 136.311 134.375 137.494 133.418 138.527C132.493 139.548 131.394 140.29 130.121 140.753C128.562 141.321 127.187 141.353 125.995 140.85C124.792 140.315 123.895 139.237 123.304 137.614L117.66 122.106L114.367 123.304L113.898 122.016C115.37 121.012 116.279 119.798 116.626 118.375C117.005 116.94 116.998 115.141 116.607 112.978L118.707 112.214L120.808 117.988L128.396 115.226L129.351 117.851L121.764 120.612L126.575 133.83Z" fill="#FFF5E3"/>
<path d="M123.342 47.9973C121.381 49.2289 119.362 50.0251 117.285 50.3861C115.24 50.7586 113.231 50.5859 111.259 49.868C109.891 49.3701 108.713 48.5989 107.724 47.5545C106.746 46.4783 105.982 45.2633 105.43 43.9095C104.889 42.5239 104.586 41.0805 104.52 39.5793C104.454 38.0782 104.676 36.6277 105.185 35.228C105.88 33.3192 106.825 31.6636 108.02 30.2612C109.258 28.8385 110.654 27.7254 112.207 26.9218C113.717 26.1384 115.363 25.6746 117.145 25.5305C118.958 25.398 120.772 25.6618 122.585 26.3218C123.285 26.5765 124.004 26.9281 124.741 27.3767C125.49 27.7934 126.147 28.2665 126.71 28.7959C127.274 29.3254 127.692 29.9098 127.964 30.5491C128.267 31.2 128.292 31.8753 128.037 32.5752C127.817 33.1796 127.467 33.6467 126.987 33.9762C126.506 34.3058 125.98 34.3664 125.407 34.158C124.93 33.9843 124.525 33.7109 124.193 33.3377C123.904 32.9442 123.707 32.2963 123.603 31.3938C123.505 30.6736 123.176 29.9952 122.615 29.3587C122.054 28.7223 121.153 28.1782 119.912 27.7267C118.831 27.333 117.766 27.2878 116.719 27.5912C115.672 27.8946 114.71 28.4092 113.834 29.1349C112.937 29.8172 112.148 30.6471 111.468 31.6245C110.832 32.5817 110.351 33.5057 110.027 34.3964C109.552 35.7007 109.26 36.9993 109.15 38.2922C109.071 39.5966 109.214 40.8375 109.578 42.0148C109.942 43.192 110.535 44.2364 111.356 45.1477C112.177 46.059 113.287 46.7694 114.687 47.2789C115.992 47.7536 117.3 47.8697 118.613 47.6271C119.958 47.3961 121.217 47.0075 122.388 46.4612L123.342 47.9973Z" fill="#FFF5E3"/>
<path d="M122.231 81.5693C121.823 82.3935 121.493 83.102 121.241 83.6949C120.989 84.2877 120.782 84.8068 120.62 85.2522C121.537 85.0095 122.411 84.7871 123.241 84.5848C124.083 84.3508 124.917 84.1862 125.744 84.091C126.54 83.9842 127.338 83.9685 128.139 84.044C128.952 84.0876 129.772 84.2599 130.599 84.561C132.794 85.3599 134.061 86.6315 134.398 88.3757C134.736 90.1199 134.535 92.01 133.794 94.046L129.73 105.212C129.266 106.485 129.149 107.451 129.377 108.11C129.649 108.749 130.517 109.335 131.98 109.868L131.355 111.586C130.909 111.424 130.178 111.158 129.16 110.787C128.142 110.416 127.06 110.023 125.915 109.606C124.769 109.189 123.682 108.811 122.652 108.473C121.634 108.102 120.919 107.842 120.505 107.691L121.148 105.925C122.516 106.423 123.477 106.503 124.033 106.165C124.632 105.806 125.163 104.991 125.626 103.718L129.707 92.5046C130.263 90.9776 130.307 89.7686 129.839 88.8776C129.402 87.9982 128.452 87.2922 126.989 86.7596C126.564 86.6408 126.03 86.5727 125.388 86.5552C124.778 86.5492 124.128 86.6011 123.44 86.7108C122.763 86.7887 122.09 86.9042 121.422 87.0573C120.786 87.222 120.241 87.3838 119.787 87.5427L115.271 99.9496C114.808 101.222 114.69 102.188 114.919 102.848C115.158 103.475 116.026 104.061 117.521 104.605L116.878 106.371C116.413 106.166 115.671 105.878 114.653 105.507C113.647 105.105 112.571 104.695 111.426 104.278C110.28 103.861 109.193 103.484 108.163 103.145C107.145 102.774 106.424 102.53 105.999 102.411L106.641 100.646C108.041 101.155 109.019 101.241 109.574 100.902C110.173 100.544 110.704 99.7284 111.167 98.4559L115.196 87.3852C115.764 85.8264 115.98 84.7881 115.844 84.2703C115.72 83.7207 115.021 83.2143 113.749 82.7512L114.287 81.2719C115.363 81.4834 116.41 81.5762 117.428 81.5505C118.446 81.5248 119.443 81.311 120.418 80.9093L122.231 81.5693Z" fill="#FFF5E3"/>
<path d="M45.5937 103.008L40.0859 119.297C39.3828 121.172 38.9141 122.773 38.6797 124.102C38.4453 125.43 38.6016 126.523 39.1484 127.383C39.6953 128.164 40.6328 128.75 41.9609 129.141C43.3672 129.531 45.3594 129.727 47.9375 129.727V135.234C45.75 135.156 43.3281 135.117 40.6719 135.117C38.0937 135.117 35.4375 135.117 32.7031 135.117C30.0469 135.117 27.4297 135.117 24.8516 135.117C22.2734 135.117 19.8906 135.156 17.7031 135.234V129.492C19.8906 129.492 21.6484 129.336 22.9766 129.023C24.3828 128.633 25.5156 128.008 26.375 127.148C27.3125 126.289 28.0937 125.156 28.7187 123.75C29.4219 122.344 30.1641 120.508 30.9453 118.242L56.9609 43.4766H63.5234L88.8359 118.477C89.6172 120.82 90.3594 122.695 91.0625 124.102C91.8437 125.508 92.7422 126.602 93.7578 127.383C94.7734 128.164 95.9453 128.75 97.2734 129.141C98.6797 129.453 100.398 129.727 102.43 129.961V135.234C100.242 135.156 97.7031 135.117 94.8125 135.117C91.9219 135.117 88.9531 135.117 85.9062 135.117C82.8594 135.117 79.8906 135.117 77 135.117C74.1094 135.117 71.5703 135.156 69.3828 135.234V129.727C71.9609 129.727 73.9141 129.609 75.2422 129.375C76.6484 129.141 77.5859 128.672 78.0547 127.969C78.5234 127.266 78.5625 126.211 78.1719 124.805C77.8594 123.398 77.3125 121.484 76.5312 119.062L71.1406 103.008H45.5937ZM47.8203 96.4453H69.0312L58.6016 65.2734L47.8203 96.4453Z" fill="#FFF5E3"/>
<circle cx="60.2002" cy="34.3154" r="4" fill="#FFF5E3"/>
</svg>
