<svg width="160" height="161" viewBox="0 0 160 161" fill="none" xmlns="http://www.w3.org/2000/svg">
<path d="M0 20.3154C0 9.26974 8.95431 0.31543 20 0.31543H140C151.046 0.31543 160 9.26974 160 20.3154V140.315C160 151.361 151.046 160.315 140 160.315H20C8.95431 160.315 0 151.361 0 140.315V20.3154Z" fill="#545430"/>
<path d="M116.691 61.2152C116.706 61.3541 116.807 61.7315 116.995 62.3475C117.215 62.9519 117.513 63.6721 117.89 64.5078C118.874 66.8156 120.254 68.529 122.03 69.6478C123.795 70.7348 125.695 70.9078 127.731 70.1667C129.163 69.6457 130.303 68.8702 131.153 67.8403C132.035 66.7988 132.715 65.5968 133.191 64.2343L135.048 64.5852C134.688 66.662 133.93 68.5408 132.777 70.2216C131.612 71.8706 130.027 73.0598 128.023 73.7893C126.591 74.3104 125.151 74.5104 123.702 74.3893C122.273 74.2249 120.928 73.7957 119.667 73.102C118.362 72.3879 117.206 71.4396 116.199 70.2569C115.213 69.0308 114.424 67.6066 113.833 65.9841C113.092 63.9481 112.687 62.0422 112.617 60.2663C112.535 58.4586 112.753 56.8301 113.271 55.3809C113.756 53.9433 114.515 52.7124 115.547 51.6882C116.6 50.6206 117.858 49.8205 119.321 49.2878C120.307 48.9289 121.373 48.7391 122.518 48.7185C123.652 48.6661 124.738 48.8292 125.777 49.2078C126.815 49.5864 127.78 50.208 128.671 51.0726C129.551 51.9053 130.261 53.0157 130.802 54.4039C130.93 54.7539 131.012 55.0301 131.05 55.2325C131.119 55.4234 131.124 55.5839 131.063 55.7141C131.034 55.8327 130.93 55.9426 130.751 56.0439C130.572 56.1452 130.323 56.2537 130.005 56.3695L116.691 61.2152ZM125.328 55.6941C125.709 55.5551 125.946 55.4148 126.039 55.273C126.152 55.0879 126.133 54.7885 125.982 54.375C125.612 53.357 124.849 52.4996 123.695 51.8029C122.529 51.0744 121.262 50.959 119.894 51.4569C118.272 52.0475 117.169 53.0254 116.585 54.3908C116.001 55.7561 115.877 57.2963 116.213 59.0114L125.328 55.6941Z" fill="#FFF5E3"/>
<path d="M126.575 129.83C127.223 131.612 127.88 132.724 128.545 133.166C129.199 133.576 129.876 133.654 130.576 133.4C131.021 133.237 131.657 132.808 132.484 132.11C133.311 131.413 133.913 130.69 134.288 129.941L135.747 130.977C135.151 132.311 134.375 133.494 133.418 134.527C132.493 135.548 131.394 136.29 130.121 136.753C128.562 137.321 127.187 137.353 125.995 136.85C124.792 136.315 123.895 135.237 123.304 133.614L117.66 118.106L114.367 119.304L113.898 118.016C115.37 117.012 116.279 115.798 116.626 114.375C117.005 112.94 116.998 111.141 116.607 108.978L118.707 108.214L120.808 113.988L128.396 111.226L129.351 113.851L121.764 116.612L126.575 129.83Z" fill="#FFF5E3"/>
<path d="M121.239 43.9973C119.278 45.2289 117.259 46.0251 115.182 46.3861C113.137 46.7586 111.128 46.5859 109.156 45.868C107.788 45.3701 106.61 44.5989 105.621 43.5545C104.644 42.4783 103.879 41.2633 103.327 39.9095C102.786 38.5239 102.483 37.0805 102.417 35.5793C102.351 34.0782 102.573 32.6277 103.082 31.228C103.777 29.3192 104.722 27.6636 105.917 26.2612C107.155 24.8385 108.551 23.7254 110.104 22.9218C111.614 22.1384 113.26 21.6746 115.042 21.5305C116.855 21.398 118.669 21.6618 120.482 22.3218C121.182 22.5765 121.901 22.9281 122.638 23.3767C123.387 23.7934 124.044 24.2665 124.607 24.7959C125.171 25.3254 125.589 25.9098 125.861 26.5491C126.164 27.2 126.189 27.8753 125.934 28.5752C125.714 29.1796 125.364 29.6467 124.884 29.9762C124.403 30.3058 123.877 30.3664 123.304 30.158C122.827 29.9843 122.422 29.7109 122.09 29.3377C121.801 28.9442 121.604 28.2963 121.5 27.3938C121.402 26.6736 121.073 25.9952 120.512 25.3587C119.951 24.7223 119.05 24.1782 117.809 23.7267C116.728 23.333 115.663 23.2878 114.616 23.5912C113.569 23.8946 112.607 24.4092 111.731 25.1349C110.834 25.8172 110.045 26.6471 109.365 27.6245C108.729 28.5817 108.248 29.5057 107.924 30.3964C107.449 31.7007 107.157 32.9993 107.047 34.2922C106.968 35.5966 107.111 36.8375 107.475 38.0148C107.839 39.192 108.432 40.2364 109.253 41.1477C110.074 42.059 111.184 42.7694 112.584 43.2789C113.889 43.7536 115.197 43.8697 116.511 43.6271C117.856 43.3961 119.114 43.0075 120.285 42.4612L121.239 43.9973Z" fill="#FFF5E3"/>
<path d="M122.231 77.5693C121.823 78.3935 121.493 79.102 121.241 79.6949C120.989 80.2877 120.782 80.8068 120.62 81.2522C121.537 81.0095 122.411 80.7871 123.241 80.5848C124.083 80.3508 124.917 80.1862 125.744 80.091C126.54 79.9842 127.338 79.9685 128.139 80.044C128.952 80.0876 129.772 80.2599 130.599 80.561C132.794 81.3599 134.061 82.6315 134.398 84.3757C134.736 86.1199 134.535 88.01 133.794 90.046L129.73 101.212C129.266 102.485 129.149 103.451 129.377 104.11C129.649 104.749 130.517 105.335 131.98 105.868L131.355 107.586C130.909 107.424 130.178 107.158 129.16 106.787C128.142 106.416 127.06 106.023 125.915 105.606C124.769 105.189 123.682 104.811 122.652 104.473C121.634 104.102 120.919 103.842 120.505 103.691L121.148 101.925C122.516 102.423 123.477 102.503 124.033 102.165C124.632 101.806 125.163 100.991 125.626 99.7185L129.707 88.5046C130.263 86.9776 130.307 85.7686 129.839 84.8776C129.402 83.9982 128.452 83.2922 126.989 82.7596C126.564 82.6408 126.03 82.5727 125.388 82.5552C124.778 82.5492 124.128 82.6011 123.44 82.7108C122.763 82.7887 122.09 82.9042 121.422 83.0573C120.786 83.222 120.241 83.3838 119.787 83.5427L115.271 95.9496C114.808 97.2221 114.69 98.1881 114.919 98.8476C115.158 99.4753 116.026 100.061 117.521 100.605L116.878 102.371C116.413 102.166 115.671 101.878 114.653 101.507C113.647 101.105 112.571 100.695 111.426 100.278C110.28 99.8615 109.193 99.4837 108.163 99.145C107.145 98.7745 106.424 98.5299 105.999 98.4111L106.641 96.6455C108.041 97.155 109.019 97.2406 109.574 96.9024C110.173 96.5439 110.704 95.7284 111.167 94.4559L115.196 83.3852C115.764 81.8264 115.98 80.7881 115.844 80.2703C115.72 79.7207 115.021 79.2143 113.749 78.7512L114.287 77.2719C115.363 77.4834 116.41 77.5762 117.428 77.5505C118.446 77.5248 119.443 77.311 120.418 76.9093L122.231 77.5693Z" fill="#FFF5E3"/>
<path d="M45.5938 98.0078L40.0859 114.297C39.3828 116.172 38.9141 117.773 38.6797 119.102C38.4453 120.43 38.6016 121.523 39.1484 122.383C39.6953 123.164 40.6328 123.75 41.9609 124.141C43.3672 124.531 45.3594 124.727 47.9375 124.727V130.234C45.75 130.156 43.3281 130.117 40.6719 130.117C38.0938 130.117 35.4375 130.117 32.7031 130.117C30.0469 130.117 27.4297 130.117 24.8516 130.117C22.2734 130.117 19.8906 130.156 17.7031 130.234V124.492C19.8906 124.492 21.6484 124.336 22.9766 124.023C24.3828 123.633 25.5156 123.008 26.375 122.148C27.3125 121.289 28.0938 120.156 28.7188 118.75C29.4219 117.344 30.1641 115.508 30.9453 113.242L56.9609 38.4766H63.5234L88.8359 113.477C89.6172 115.82 90.3594 117.695 91.0625 119.102C91.8437 120.508 92.7422 121.602 93.7578 122.383C94.7734 123.164 95.9453 123.75 97.2734 124.141C98.6797 124.453 100.398 124.727 102.43 124.961V130.234C100.242 130.156 97.7031 130.117 94.8125 130.117C91.9219 130.117 88.9531 130.117 85.9062 130.117C82.8594 130.117 79.8906 130.117 77 130.117C74.1094 130.117 71.5703 130.156 69.3828 130.234V124.727C71.9609 124.727 73.9141 124.609 75.2422 124.375C76.6484 124.141 77.5859 123.672 78.0547 122.969C78.5234 122.266 78.5625 121.211 78.1719 119.805C77.8594 118.398 77.3125 116.484 76.5312 114.062L71.1406 98.0078H45.5938ZM47.8203 91.4453H69.0312L58.6016 60.2734L47.8203 91.4453Z" fill="#FFF5E3"/>
<path d="M64.2002 30.3154C64.2002 32.5246 62.4093 34.3154 60.2002 34.3154C57.9911 34.3154 56.2002 32.5246 56.2002 30.3154C56.2002 28.1063 57.9911 26.3154 60.2002 26.3154C62.4093 26.3154 64.2002 28.1063 64.2002 30.3154Z" fill="#FFF5E3"/>
</svg>
